<?xml version="1.0" standalone="no"?>
<!DOCTYPE svg PUBLIC "-//W3C//DTD SVG 20010904//EN"
 "http://www.w3.org/TR/2001/REC-SVG-20010904/DTD/svg10.dtd">
<svg version="1.0" xmlns="http://www.w3.org/2000/svg"
 width="834.000000pt" height="205.000000pt" viewBox="0 0 834.000000 205.000000"
 preserveAspectRatio="xMidYMid meet">

<g transform="translate(0.000000,205.000000) scale(0.100000,-0.100000)"
fill="#000000" stroke="none">
<path d="M401 1778 c1 -25 184 -253 205 -256 14 -2 54 25 125 84 57 48 119 96
137 107 35 21 38 27 20 45 -25 25 -55 9 -152 -78 -54 -50 -104 -90 -112 -90
-7 0 -50 45 -95 100 -62 75 -88 100 -105 100 -13 0 -24 -6 -23 -12z"/>
<path d="M5293 1775 c15 -39 182 -246 202 -251 19 -5 47 14 144 95 67 56 128
101 136 101 16 0 18 9 9 34 -14 37 -55 17 -154 -74 -54 -49 -104 -90 -112 -90
-9 0 -52 45 -97 100 -65 79 -87 100 -108 100 -18 0 -24 -4 -20 -15z"/>
<path d="M7525 1712 c-11 -2 -24 -7 -28 -12 -4 -4 -1 -94 7 -200 9 -105 16
-223 16 -261 l0 -69 -67 0 c-188 -1 -273 -170 -273 -544 0 -122 2 -136 23
-167 66 -98 191 -40 286 132 l40 74 3 -195 c3 -190 4 -195 24 -198 12 -2 24 3
27 10 2 8 2 332 -1 720 -5 767 -2 721 -57 710z m-21 -765 c-1 -91 -6 -129 -28
-200 -48 -160 -111 -257 -168 -257 -46 0 -63 45 -62 165 0 150 46 300 115 379
50 56 95 72 124 44 18 -16 20 -31 19 -131z"/>
<path d="M7686 1671 c-3 -4 1 -59 9 -122 25 -208 38 -516 33 -812 -5 -278 -4
-288 14 -298 11 -6 31 -8 45 -4 l25 6 -6 237 c-13 441 -34 826 -52 960 -6 38
-9 42 -35 42 -15 0 -30 -4 -33 -9z"/>
<path d="M6902 1426 c-73 -79 -83 -103 -52 -128 22 -18 23 -18 69 24 84 77
109 126 79 156 -21 21 -34 14 -96 -52z"/>
<path d="M170 1401 l0 -28 268 -6 c289 -7 362 -13 362 -31 0 -6 -148 -202
-330 -435 -181 -233 -330 -424 -330 -426 0 -1 5 -16 11 -34 12 -35 41 -47 92
-37 18 3 188 10 377 16 190 5 369 13 398 16 59 8 77 26 66 70 -6 24 -9 25 -53
20 -93 -12 -754 -19 -750 -8 2 6 148 192 324 413 176 221 326 411 333 421 8
11 11 30 7 48 l-7 30 -384 0 -384 0 0 -29z"/>
<path d="M5060 1401 l0 -28 278 -7 c302 -7 352 -12 352 -31 0 -7 -146 -201
-325 -431 -338 -434 -348 -450 -307 -487 16 -15 35 -16 168 -7 82 5 219 10
304 10 209 0 432 17 442 33 5 6 7 26 6 42 -3 29 -4 30 -53 28 -163 -7 -755
-14 -755 -9 0 3 151 195 335 426 184 232 335 429 335 440 0 52 18 50 -396 50
l-384 0 0 -29z"/>
<path d="M2252 1254 c-29 -14 -68 -45 -87 -68 -59 -72 -78 -125 -135 -373 -22
-93 -40 -121 -40 -61 0 48 -39 384 -53 453 -11 54 -14 60 -37 60 -22 0 -25 -5
-28 -40 -4 -41 34 -656 46 -755 6 -50 9 -55 34 -58 53 -6 63 8 87 135 53 270
152 538 220 596 41 34 60 34 95 -2 l28 -29 20 -323 c10 -178 21 -330 23 -336
3 -7 13 -13 23 -13 43 0 45 17 39 273 -8 328 -40 476 -117 540 -39 33 -53 34
-118 1z"/>
<path d="M4057 1223 c-4 -3 -7 -76 -7 -161 l0 -155 -24 26 c-51 55 -145 40
-194 -33 -22 -32 -23 -43 -20 -122 5 -98 21 -128 68 -128 29 0 87 38 134 89
17 17 32 31 36 31 3 0 4 -45 2 -100 l-4 -100 25 0 c49 0 57 20 57 152 l0 120
75 71 c41 40 75 80 75 90 0 29 -42 20 -109 -23 -34 -22 -63 -40 -64 -40 -1 0
-1 65 1 145 l3 145 -24 0 c-13 0 -27 -3 -30 -7z m-76 -336 c19 -12 35 -29 37
-38 3 -18 -104 -139 -123 -139 -39 0 -50 129 -14 174 25 32 55 33 100 3z"/>
<path d="M8005 1221 c-37 -16 -53 -46 -78 -156 -40 -172 -50 -264 -42 -415 7
-152 17 -202 46 -231 26 -26 55 -24 118 7 68 34 113 95 148 199 24 71 27 95
27 225 1 161 -8 202 -70 295 -48 73 -96 97 -149 76z m92 -107 c38 -10 56 -74
56 -204 0 -223 -59 -397 -138 -412 -41 -8 -49 20 -53 190 -5 178 10 327 38
382 25 48 46 58 97 44z"/>
<path d="M2854 1191 c-123 -75 -298 -432 -297 -606 0 -125 46 -184 117 -150
57 27 120 109 214 278 l60 108 11 -31 c6 -18 18 -98 27 -178 19 -167 26 -195
52 -190 27 5 27 137 1 326 -12 88 -22 216 -23 291 -1 127 -3 134 -25 152 -30
25 -97 25 -137 0z m74 -123 c2 -20 -4 -65 -13 -99 -33 -130 -221 -439 -267
-439 -4 0 -14 11 -20 25 -35 78 213 566 281 553 10 -2 17 -16 19 -40z"/>
<path d="M6915 1192 c-93 -58 -199 -239 -270 -463 -28 -91 -33 -161 -15 -227
44 -164 168 -76 331 233 47 89 48 89 59 61 6 -16 19 -103 30 -194 11 -91 24
-170 30 -176 7 -7 16 -7 28 1 23 14 20 133 -9 337 -11 83 -20 205 -20 274 -1
118 -2 126 -24 148 -30 30 -96 32 -140 6z m70 -148 c-1 -76 -24 -144 -87 -258
-134 -238 -208 -312 -208 -206 0 102 166 446 245 508 16 13 33 21 39 19 6 -2
11 -29 11 -63z"/>
<path d="M1418 1190 c-62 -19 -98 -60 -154 -179 -83 -175 -97 -200 -126 -228
-16 -15 -28 -33 -28 -40 0 -17 42 -33 68 -27 24 7 32 -17 32 -101 0 -83 16
-133 54 -171 39 -39 90 -51 151 -34 93 26 254 156 324 261 48 72 54 114 16
121 -28 6 -49 -14 -118 -113 -53 -75 -138 -158 -187 -184 -43 -22 -125 -24
-146 -3 -23 23 -33 81 -27 166 8 131 7 129 151 210 70 40 150 90 177 111 46
35 50 40 49 79 -2 93 -129 164 -236 132z m107 -84 c49 -21 47 -53 -5 -99 -54
-49 -188 -115 -203 -100 -9 9 21 82 54 129 30 44 81 84 107 84 7 0 28 -7 47
-14z"/>
<path d="M6375 1145 c-22 -8 -56 -31 -76 -53 -55 -58 -78 -134 -92 -295 -13
-166 -17 -159 -52 117 -14 111 -28 207 -30 214 -2 6 -15 12 -28 12 -14 0 -29
-6 -35 -12 -7 -9 6 -117 44 -358 56 -364 58 -370 111 -370 12 0 27 8 32 18 6
11 17 114 26 229 26 352 53 408 207 424 80 9 106 25 89 57 -18 33 -123 43
-196 17z"/>
</g>
</svg>
